<mxfile host="app.diagrams.net" agent="Mozilla/5.0 (Windows NT 10.0; Win64; x64) AppleWebKit/537.36 (KHTML, like Gecko) Chrome/129.0.0.0 Safari/537.36" version="24.7.16">
  <diagram name="Page-1" id="_-WS09nqeZ3YQB_b0d59">
    <mxGraphModel dx="1032" dy="501" grid="1" gridSize="10" guides="1" tooltips="1" connect="1" arrows="1" fold="1" page="1" pageScale="1" pageWidth="1169" pageHeight="827" background="#FFFFFF" math="0" shadow="0">
      <root>
        <mxCell id="0" />
        <mxCell id="1" parent="0" />
        <mxCell id="Dl7q8pRwCRPBg_EnZdLq-22" value="" style="rounded=0;whiteSpace=wrap;html=1;fillColor=#C7C7C7;strokeColor=#36393d;" vertex="1" parent="1">
          <mxGeometry x="210" y="170" width="650" height="410" as="geometry" />
        </mxCell>
        <mxCell id="Dl7q8pRwCRPBg_EnZdLq-13" style="edgeStyle=orthogonalEdgeStyle;rounded=0;orthogonalLoop=1;jettySize=auto;html=1;exitX=0.5;exitY=1;exitDx=0;exitDy=0;entryX=0.5;entryY=0;entryDx=0;entryDy=0;" edge="1" parent="1" source="Dl7q8pRwCRPBg_EnZdLq-1" target="Dl7q8pRwCRPBg_EnZdLq-3">
          <mxGeometry relative="1" as="geometry" />
        </mxCell>
        <mxCell id="Dl7q8pRwCRPBg_EnZdLq-1" value="&lt;font style=&quot;font-size: 16px;&quot;&gt;&lt;b&gt;Landsat Images Year&lt;/b&gt;&lt;/font&gt;" style="rounded=0;whiteSpace=wrap;html=1;" vertex="1" parent="1">
          <mxGeometry x="320" y="190" width="180" height="50" as="geometry" />
        </mxCell>
        <mxCell id="Dl7q8pRwCRPBg_EnZdLq-20" style="edgeStyle=orthogonalEdgeStyle;rounded=0;orthogonalLoop=1;jettySize=auto;html=1;exitX=0.5;exitY=1;exitDx=0;exitDy=0;entryX=0.5;entryY=0;entryDx=0;entryDy=0;" edge="1" parent="1" source="Dl7q8pRwCRPBg_EnZdLq-2" target="Dl7q8pRwCRPBg_EnZdLq-7">
          <mxGeometry relative="1" as="geometry" />
        </mxCell>
        <mxCell id="Dl7q8pRwCRPBg_EnZdLq-2" value="&lt;font style=&quot;font-size: 16px;&quot;&gt;&lt;b&gt;Change Decade&lt;/b&gt;&lt;/font&gt;" style="rounded=0;whiteSpace=wrap;html=1;" vertex="1" parent="1">
          <mxGeometry x="640" y="190" width="180" height="50" as="geometry" />
        </mxCell>
        <mxCell id="Dl7q8pRwCRPBg_EnZdLq-3" value="&lt;font style=&quot;font-size: 16px;&quot;&gt;&lt;b&gt;Landsat 5 TM&amp;nbsp;&lt;/b&gt;&lt;/font&gt;&lt;div&gt;&lt;span style=&quot;font-size: 16px;&quot;&gt;&lt;b&gt;1984&lt;/b&gt;&lt;/span&gt;&lt;/div&gt;" style="rounded=0;whiteSpace=wrap;html=1;" vertex="1" parent="1">
          <mxGeometry x="320" y="270" width="180" height="50" as="geometry" />
        </mxCell>
        <mxCell id="Dl7q8pRwCRPBg_EnZdLq-4" value="&lt;font style=&quot;font-size: 16px;&quot;&gt;&lt;b&gt;Landsat 7 ETM+&lt;/b&gt;&lt;/font&gt;&lt;div&gt;&lt;span style=&quot;font-size: 16px;&quot;&gt;&lt;b&gt;2004&lt;/b&gt;&lt;/span&gt;&lt;/div&gt;" style="rounded=0;whiteSpace=wrap;html=1;" vertex="1" parent="1">
          <mxGeometry x="320" y="350" width="180" height="50" as="geometry" />
        </mxCell>
        <mxCell id="Dl7q8pRwCRPBg_EnZdLq-5" value="&lt;font style=&quot;font-size: 16px;&quot;&gt;&lt;b&gt;Landsat 8 OLI&lt;/b&gt;&lt;/font&gt;&lt;div&gt;&lt;span style=&quot;font-size: 16px;&quot;&gt;&lt;b&gt;2014&lt;/b&gt;&lt;/span&gt;&lt;/div&gt;" style="rounded=0;whiteSpace=wrap;html=1;" vertex="1" parent="1">
          <mxGeometry x="320" y="430" width="180" height="50" as="geometry" />
        </mxCell>
        <mxCell id="Dl7q8pRwCRPBg_EnZdLq-6" value="&lt;font style=&quot;font-size: 16px;&quot;&gt;&lt;b&gt;Landsat 8 OLI&lt;/b&gt;&lt;/font&gt;&lt;div&gt;&lt;span style=&quot;font-size: 16px;&quot;&gt;&lt;b&gt;2024&lt;/b&gt;&lt;/span&gt;&lt;/div&gt;" style="rounded=0;whiteSpace=wrap;html=1;" vertex="1" parent="1">
          <mxGeometry x="320" y="510" width="180" height="50" as="geometry" />
        </mxCell>
        <mxCell id="Dl7q8pRwCRPBg_EnZdLq-7" value="&lt;font style=&quot;font-size: 16px;&quot;&gt;&lt;b&gt;1984 - 2004&lt;/b&gt;&lt;/font&gt;" style="rounded=0;whiteSpace=wrap;html=1;" vertex="1" parent="1">
          <mxGeometry x="640" y="310" width="180" height="50" as="geometry" />
        </mxCell>
        <mxCell id="Dl7q8pRwCRPBg_EnZdLq-8" value="&lt;span style=&quot;font-size: 16px;&quot;&gt;&lt;b&gt;2004 - 2014&lt;/b&gt;&lt;/span&gt;" style="rounded=0;whiteSpace=wrap;html=1;" vertex="1" parent="1">
          <mxGeometry x="640" y="400" width="180" height="50" as="geometry" />
        </mxCell>
        <mxCell id="Dl7q8pRwCRPBg_EnZdLq-9" value="" style="strokeWidth=2;html=1;shape=mxgraph.flowchart.annotation_1;align=left;pointerEvents=1;rotation=-180;" vertex="1" parent="1">
          <mxGeometry x="500" y="289" width="50" height="259" as="geometry" />
        </mxCell>
        <mxCell id="Dl7q8pRwCRPBg_EnZdLq-10" value="" style="endArrow=none;html=1;rounded=0;" edge="1" parent="1">
          <mxGeometry width="50" height="50" relative="1" as="geometry">
            <mxPoint x="500" y="380" as="sourcePoint" />
            <mxPoint x="550" y="380" as="targetPoint" />
          </mxGeometry>
        </mxCell>
        <mxCell id="Dl7q8pRwCRPBg_EnZdLq-11" value="" style="endArrow=none;html=1;rounded=0;" edge="1" parent="1">
          <mxGeometry width="50" height="50" relative="1" as="geometry">
            <mxPoint x="500" y="450" as="sourcePoint" />
            <mxPoint x="550" y="450" as="targetPoint" />
          </mxGeometry>
        </mxCell>
        <mxCell id="Dl7q8pRwCRPBg_EnZdLq-12" value="" style="strokeWidth=2;html=1;shape=mxgraph.flowchart.annotation_1;align=left;pointerEvents=1;rotation=0;" vertex="1" parent="1">
          <mxGeometry x="270" y="289" width="50" height="259" as="geometry" />
        </mxCell>
        <mxCell id="Dl7q8pRwCRPBg_EnZdLq-14" value="" style="endArrow=none;html=1;rounded=0;" edge="1" parent="1">
          <mxGeometry width="50" height="50" relative="1" as="geometry">
            <mxPoint x="270" y="374.5" as="sourcePoint" />
            <mxPoint x="320" y="374.5" as="targetPoint" />
          </mxGeometry>
        </mxCell>
        <mxCell id="Dl7q8pRwCRPBg_EnZdLq-15" value="" style="endArrow=none;html=1;rounded=0;" edge="1" parent="1">
          <mxGeometry width="50" height="50" relative="1" as="geometry">
            <mxPoint x="270" y="460" as="sourcePoint" />
            <mxPoint x="320" y="460" as="targetPoint" />
          </mxGeometry>
        </mxCell>
        <mxCell id="Dl7q8pRwCRPBg_EnZdLq-16" value="" style="endArrow=classic;html=1;rounded=0;entryX=0;entryY=0.5;entryDx=0;entryDy=0;" edge="1" parent="1" target="Dl7q8pRwCRPBg_EnZdLq-7">
          <mxGeometry width="50" height="50" relative="1" as="geometry">
            <mxPoint x="550" y="334.5" as="sourcePoint" />
            <mxPoint x="610" y="334.5" as="targetPoint" />
          </mxGeometry>
        </mxCell>
        <mxCell id="Dl7q8pRwCRPBg_EnZdLq-17" value="" style="endArrow=classic;html=1;rounded=0;entryX=0;entryY=0.5;entryDx=0;entryDy=0;" edge="1" parent="1">
          <mxGeometry width="50" height="50" relative="1" as="geometry">
            <mxPoint x="550" y="424.5" as="sourcePoint" />
            <mxPoint x="640" y="425" as="targetPoint" />
          </mxGeometry>
        </mxCell>
        <mxCell id="Dl7q8pRwCRPBg_EnZdLq-18" value="&lt;span style=&quot;font-size: 16px;&quot;&gt;&lt;b&gt;2014 - 2024&lt;/b&gt;&lt;/span&gt;" style="rounded=0;whiteSpace=wrap;html=1;" vertex="1" parent="1">
          <mxGeometry x="640" y="480" width="180" height="50" as="geometry" />
        </mxCell>
        <mxCell id="Dl7q8pRwCRPBg_EnZdLq-19" value="" style="endArrow=classic;html=1;rounded=0;entryX=0;entryY=0.5;entryDx=0;entryDy=0;" edge="1" parent="1">
          <mxGeometry width="50" height="50" relative="1" as="geometry">
            <mxPoint x="550" y="504.5" as="sourcePoint" />
            <mxPoint x="640" y="505" as="targetPoint" />
          </mxGeometry>
        </mxCell>
      </root>
    </mxGraphModel>
  </diagram>
</mxfile>
